<svg width="50" height="50" viewBox="0 0 50 50" fill="none" xmlns="http://www.w3.org/2000/svg">
<g clip-path="url(#clip0_333_1275)">
<mask id="mask0_333_1275" style="mask-type:luminance" maskUnits="userSpaceOnUse" x="0" y="0" width="50" height="50">
<path d="M50 0H0V50H50V0Z" fill="white"/>
</mask>
<g mask="url(#mask0_333_1275)">
<path d="M47.7943 40.8542L45.4193 41.3958C43.7109 41.7917 42.3776 43.125 41.9818 44.8333L41.4193 47.2083C41.3568 47.4583 41.0026 47.4583 40.9401 47.2083L40.3984 44.8333C40.0026 43.125 38.6693 41.7917 36.9609 41.3958L34.5859 40.8333C34.3359 40.7708 34.3359 40.4167 34.5859 40.3542L36.9609 39.8125C38.6693 39.4167 40.0026 38.0833 40.3984 36.375L40.9609 34C41.0234 33.75 41.3776 33.75 41.4401 34L41.9818 36.375C42.3776 38.0833 43.7109 39.4167 45.4193 39.8125L47.7943 40.375C48.0443 40.4375 48.0443 40.7917 47.7943 40.8542Z" stroke="#755840" stroke-width="2" stroke-miterlimit="10"/>
<path opacity="0.4" d="M34.25 4.16602H38.875C42.7083 4.16602 45.8125 7.27018 45.8125 11.1035V15.7285" stroke="#755840" stroke-width="2" stroke-linecap="round" stroke-linejoin="round"/>
<path opacity="0.4" d="M4.16797 34.25V38.875C4.16797 42.7083 7.27214 45.8125 11.1055 45.8125H15.7305" stroke="#755840" stroke-width="2" stroke-linecap="round" stroke-linejoin="round"/>
<path opacity="0.4" d="M4.16797 15.75V11.125C4.16797 7.29167 7.27214 4.1875 11.1055 4.1875H15.7305" stroke="#755840" stroke-width="2" stroke-linecap="round" stroke-linejoin="round"/>
<path d="M33.69 23.2695C33.69 22.3111 32.9192 21.5403 31.9609 21.5403H28.4817V18.0612C28.4817 17.1029 27.7109 16.332 26.7525 16.332H23.2734C22.315 16.332 21.5442 17.1029 21.5442 18.0612V21.5403H18.0651C17.1068 21.5403 16.3359 22.3111 16.3359 23.2695V26.7486C16.3359 27.707 17.1068 28.4778 18.0651 28.4778H21.5442V31.957C21.5442 32.9153 22.315 33.6861 23.2734 33.6861H26.7525C27.7109 33.6861 28.4817 32.9153 28.4817 31.957V28.4778H31.9609C32.9192 28.4778 33.69 27.707 33.69 26.7486V23.2695Z" stroke="#755840" stroke-width="3" stroke-linecap="round" stroke-linejoin="round"/>
</g>
</g>
<defs>
<clipPath id="clip0_333_1275">
<rect width="50" height="50" fill="white"/>
</clipPath>
</defs>
</svg>
