<svg width="16" height="16" viewBox="0 0 16 16" fill="none" xmlns="http://www.w3.org/2000/svg">
<path d="M12.82 10.1733L11.1267 9.98C10.9276 9.95662 10.7257 9.97866 10.5364 10.0445C10.347 10.1103 10.175 10.2182 10.0333 10.36L8.80667 11.5867C6.91426 10.624 5.37604 9.08574 4.41333 7.19333L5.64667 5.96C5.93333 5.67333 6.07333 5.27333 6.02667 4.86667L5.83333 3.18667C5.79568 2.86139 5.63964 2.56135 5.39497 2.34373C5.15031 2.12611 4.83411 2.00613 4.50667 2.00667H3.35333C2.6 2.00667 1.97333 2.63333 2.02 3.38667C2.37333 9.08 6.92667 13.6267 12.6133 13.98C13.3667 14.0267 13.9933 13.4 13.9933 12.6467V11.4933C14 10.82 13.4933 10.2533 12.82 10.1733Z" fill="#755840"/>
</svg>
