<svg width="16" height="16" viewBox="0 0 16 16" fill="none" xmlns="http://www.w3.org/2000/svg">
<path fill-rule="evenodd" clip-rule="evenodd" d="M7.508 14.756C7.508 14.756 2.66667 10.6787 2.66667 6.66667C2.66667 5.25218 3.22857 3.89562 4.22876 2.89543C5.22896 1.89524 6.58551 1.33333 8 1.33333C9.41449 1.33333 10.771 1.89524 11.7712 2.89543C12.7714 3.89562 13.3333 5.25218 13.3333 6.66667C13.3333 10.6787 8.492 14.756 8.492 14.756C8.22267 15.004 7.77933 15.0013 7.508 14.756ZM8 9C8.30642 9 8.60984 8.93965 8.89293 8.82239C9.17602 8.70513 9.43325 8.53325 9.64992 8.31658C9.86659 8.09991 10.0385 7.84269 10.1557 7.55959C10.273 7.2765 10.3333 6.97308 10.3333 6.66667C10.3333 6.36025 10.273 6.05683 10.1557 5.77374C10.0385 5.49065 9.86659 5.23342 9.64992 5.01675C9.43325 4.80008 9.17602 4.62821 8.89293 4.51095C8.60984 4.39369 8.30642 4.33333 8 4.33333C7.38116 4.33333 6.78767 4.57917 6.35008 5.01675C5.9125 5.45434 5.66667 6.04783 5.66667 6.66667C5.66667 7.28551 5.9125 7.879 6.35008 8.31658C6.78767 8.75417 7.38116 9 8 9Z" fill="#755840"/>
</svg>
