<svg width="624" height="4" viewBox="0 0 624 4" fill="none" xmlns="http://www.w3.org/2000/svg">
<path d="M263.523 0.0791727C279.539 0.0252677 294.892 0.282939 310.938 0.266646C330.877 0.246484 351.077 -0.0339684 371.071 0.00295985C390.9 0.0400027 410.869 0.10184 430.743 0.182441C450.633 0.263044 470.536 0.36234 490.437 0.474191C510.302 0.586051 530.227 0.710437 550.114 0.841766C563.623 0.930972 577.14 1.02341 590.65 1.11715C596.58 1.15823 602.49 1.19952 608.418 1.24098C612.846 1.27198 617.256 1.30299 621.682 1.33401C622.297 1.33838 622.886 1.35612 623.321 1.38427C623.755 1.41247 624.001 1.44858 624 1.4859C623.999 1.52323 623.752 1.55942 623.316 1.58752C622.88 1.61554 622.29 1.63303 621.675 1.63724C617.211 1.66727 612.765 1.69731 608.299 1.72736C603.343 1.76068 598.408 1.79408 593.451 1.82722C592.672 1.67408 591.602 1.55794 589.598 1.50666C588.575 1.4805 587.087 1.46964 585.987 1.4981C585 1.52369 584.256 1.56928 583.55 1.61274C582.811 1.65819 582.11 1.70134 581.208 1.71659C579.678 1.74249 578.225 1.80753 576.699 1.87586C576.144 1.90073 575.578 1.92608 574.996 1.9501C570.267 1.98133 565.54 2.01235 560.819 2.04313C558.991 2.02688 557.311 2.01376 555.887 2.02009C554.61 2.02577 553.441 2.05817 552.278 2.09846C551.547 2.10318 550.816 2.10791 550.086 2.11263C545.359 2.14298 540.637 2.17289 535.917 2.20259C532.224 2.16197 528.368 2.12254 523.346 2.10554C521.177 2.09821 519.041 2.0763 516.989 2.05529C513.96 2.02426 511.109 1.99512 508.603 2.01741C506.929 2.03231 505.171 2.01087 503.419 1.98949C501.072 1.96083 498.721 1.93224 496.589 1.99147C495.249 2.02872 494.02 2.07396 492.882 2.11592C491.071 2.18268 489.493 2.24109 488.062 2.24532C485.362 2.25326 483.028 2.3021 480.975 2.34519C478.502 2.39702 476.445 2.44053 474.614 2.39443C474.337 2.38744 474.021 2.37813 473.664 2.36756C471.787 2.31182 468.786 2.22268 464.496 2.27294C462.962 2.29085 461.518 2.33683 460.108 2.38196C458.055 2.44766 456.064 2.51144 453.935 2.4838C453.617 2.47967 453.285 2.46209 452.983 2.44603C452.599 2.42561 452.264 2.40779 452.063 2.42342C451.477 2.46926 450.546 2.52001 449.536 2.57524C448.794 2.61582 448.008 2.65884 447.284 2.70398C441.766 2.73089 436.219 2.75689 430.702 2.78176C428.185 2.79316 425.624 2.80435 423.093 2.8153C421.797 2.74698 420.472 2.68549 419.076 2.63914C417.258 2.57855 414.865 2.56071 411.808 2.53765C409.552 2.52068 406.953 2.50085 403.886 2.45934C398.22 2.3825 392.438 2.40316 388.705 2.44767C387.918 2.45708 387.128 2.46711 386.284 2.47801C383.101 2.51937 379.049 2.57115 371.479 2.63053C364.257 2.68675 358.165 2.70438 353.561 2.7178C351.217 2.72465 349.285 2.73025 347.778 2.73947C345.212 2.75523 342.073 2.76999 338.938 2.78486C333.979 2.80816 329.054 2.8318 326.231 2.86008C325.227 2.87015 324.175 2.88244 323.041 2.89559C319.902 2.93205 316.116 2.97611 310.879 3.00492C305.427 3.03515 301.972 3.02235 298.461 2.99009C297.031 2.97699 295.769 2.92011 294.454 2.86138C292.594 2.77804 290.658 2.69109 288.054 2.72102C287.446 2.72801 286.798 2.74274 286.121 2.7582C284.867 2.78662 283.504 2.81747 282.117 2.80656C281.633 2.80275 281.207 2.78747 280.79 2.7725C280.331 2.75602 279.881 2.73992 279.372 2.73968C277.471 2.73878 275.639 2.74527 273.974 2.75117C271.841 2.75875 270.063 2.76515 268.961 2.75291C267.002 2.73109 264.85 2.75644 262.658 2.78235C260.988 2.80214 259.307 2.82228 257.686 2.82164C257.141 2.82143 256.573 2.82196 255.985 2.82322C251.489 2.83273 245.867 2.88245 240.027 2.95518C237.547 2.9863 235.422 2.95402 232.706 2.91269C231.016 2.88699 229.12 2.85762 226.738 2.8382C225.379 2.82721 224.232 2.86186 223.173 2.8939C222.198 2.92341 221.296 2.95071 220.372 2.93829C219.557 2.92731 219.042 2.87407 218.554 2.8235C218.014 2.76723 217.487 2.71434 216.623 2.72674C216.163 2.73334 215.603 2.76172 214.939 2.79544C214.676 2.80878 214.396 2.82291 214.1 2.83693C214.115 2.82588 214.119 2.81602 214.119 2.80856C214.12 2.75585 213.24 2.73002 212.38 2.70472C212.037 2.69462 211.695 2.68466 211.414 2.67305C210.384 2.6303 208.427 2.62736 206.916 2.63291C206.279 2.63523 205.702 2.62021 205.031 2.60269C204.435 2.58713 203.764 2.56957 202.91 2.56045C202.423 2.55526 202.05 2.54086 201.741 2.52883C201.518 2.52012 201.328 2.51268 201.152 2.51103C200.999 2.5096 200.876 2.525 200.738 2.54235C200.639 2.55483 200.53 2.56836 200.398 2.57733C200.082 2.59878 199.664 2.60601 199.375 2.60005C199.241 2.5973 199.135 2.59167 199.03 2.58607C198.908 2.57955 198.786 2.57297 198.618 2.57097C197.849 2.56181 197.103 2.58084 196.329 2.60062C195.479 2.62236 194.593 2.64496 193.61 2.63213C193.301 2.62809 192.971 2.61789 192.653 2.60799C192.319 2.59763 191.996 2.58764 191.721 2.58545C190.597 2.57657 189.528 2.61695 188.555 2.65408C187.907 2.67878 187.296 2.70202 186.73 2.70845C185.693 2.72019 185.138 2.76687 184.728 2.80133C184.516 2.81919 184.343 2.83385 184.162 2.83862C183.996 2.8378 183.827 2.83674 183.662 2.83554C183.511 2.8326 183.355 2.82958 183.208 2.83105C183.197 2.83117 183.186 2.83139 183.175 2.83151C182.252 2.82295 181.326 2.80982 180.419 2.79671C178.377 2.76727 176.37 2.73817 174.258 2.76338C173.799 2.76883 173.328 2.7888 172.851 2.8091C172.267 2.83396 171.67 2.8594 171.063 2.85937C169.616 2.85931 168.16 2.83258 166.731 2.80628C164.58 2.76671 162.444 2.72828 160.511 2.78288C159.872 2.8009 159.249 2.82964 158.625 2.8586C158.278 2.87474 157.929 2.89102 157.577 2.90539C157.651 2.88042 157.691 2.85707 157.728 2.8353C157.804 2.79042 157.87 2.75201 158.208 2.71855C159.007 2.63946 159.915 2.53118 159.815 2.45445C159.787 2.43363 159.809 2.41028 159.833 2.38677C159.894 2.32778 159.955 2.26753 159.211 2.24255C158.708 2.22573 157.43 2.18747 156.597 2.23494C156.417 2.24527 156.308 2.26502 156.186 2.28697C155.967 2.32642 155.706 2.37312 154.925 2.38616C154.794 2.38835 154.65 2.3904 154.503 2.39236C153.914 2.40016 153.255 2.4088 153.01 2.44073C152.726 2.4775 152.787 2.51846 152.858 2.56621C152.95 2.6284 153.059 2.70227 152.449 2.79355C152.329 2.81159 152.098 2.81835 151.924 2.82347C151.802 2.82708 151.708 2.82996 151.699 2.83531C151.688 2.84145 151.727 2.85404 151.777 2.86998C151.953 2.9262 152.258 3.02442 150.985 3.03251C150.641 3.03469 150.248 3.03117 149.895 3.02799C149.377 3.02329 148.942 3.01945 148.883 3.03585C148.861 3.04207 148.845 3.04879 148.833 3.05575C148.415 3.05508 147.997 3.05443 147.58 3.05377C147.044 3.03609 146.294 3.04008 145.359 3.04515C145.132 3.04638 144.893 3.04761 144.645 3.04867C143.826 3.04724 143.007 3.04584 142.191 3.04435C141.545 3.0382 140.853 3.02704 140.117 3.00818C138.647 2.97039 137.372 2.90442 136.129 2.83992C135.605 2.81274 135.087 2.78577 134.562 2.76132C134.766 2.75743 134.951 2.75303 135.093 2.74734C136.066 2.70836 136.458 2.63665 136.818 2.57064C137.057 2.52674 137.283 2.48534 137.658 2.45789C138.344 2.4076 138.275 2.3516 138.224 2.3102C138.198 2.28872 138.178 2.27112 138.269 2.26034C138.343 2.25169 138.513 2.24719 138.689 2.24253C138.842 2.23847 139.001 2.23423 139.102 2.22713C140.332 2.14088 139.962 2.0943 139.424 2.0265C139.127 1.98911 138.78 1.94523 138.621 1.88469C138.485 1.82048 138.53 1.80142 139.175 1.7736C138.672 1.74329 138.171 1.71298 137.669 1.68268C137.473 1.68539 137.324 1.70583 137.115 1.73967C136.741 1.80011 135.525 1.8257 134.578 1.84572C134.139 1.85499 133.758 1.86309 133.542 1.87288C132.395 1.92495 132.725 1.99113 133.023 2.04933C133.187 2.08136 133.334 2.11103 133.219 2.13459C133.17 2.14467 133.24 2.15428 133.311 2.16408C133.366 2.17166 133.423 2.17936 133.425 2.18747C133.442 2.24634 132.759 2.29234 132.125 2.33505C131.762 2.35952 131.415 2.38298 131.224 2.40713C131.166 2.41448 131.12 2.42195 131.076 2.42919C131.013 2.43976 130.951 2.44984 130.855 2.45862C130.634 2.47862 130.181 2.49312 129.684 2.50894C129.43 2.51705 129.164 2.52552 128.913 2.53528C128.588 2.54793 128.471 2.57164 128.347 2.5964C128.26 2.6139 128.168 2.63193 128 2.6471C127.696 2.67452 127.081 2.68612 126.512 2.69689C126.264 2.70158 126.025 2.70622 125.823 2.71184C125.74 2.71413 125.701 2.71827 125.692 2.7238C124.759 2.74541 123.852 2.76734 122.98 2.78879C118.611 2.8963 114.814 2.98976 109.178 2.95185C108.105 2.94471 106.955 2.95107 105.796 2.96408C102.102 2.9544 98.3644 2.94437 94.6759 2.93378C93.9429 2.88343 93.0387 2.84225 91.9748 2.81129C89.9719 2.75318 87.9385 2.74691 85.5049 2.73974C83.709 2.73442 81.716 2.72848 79.4011 2.70063C75.483 2.65395 71.4897 2.61734 66.963 2.60835C62.4635 2.59935 57.3126 2.60049 53.6594 2.60854C51.6719 2.6129 49.5885 2.57408 47.6378 2.53804C44.8978 2.48732 42.4494 2.44192 40.9451 2.5291C40.4658 2.55695 40.0028 2.60376 39.5524 2.64923C39.2316 2.68162 38.9152 2.71326 38.6055 2.73714C37.7804 2.73363 36.9548 2.7302 36.1301 2.72663C34.6625 2.67901 32.3773 2.63101 30.1754 2.7005C29.3238 2.69673 28.4734 2.69299 27.6484 2.68904C25.8503 2.68108 24.0929 2.67277 22.321 2.66443C21.7427 2.66163 21.1585 2.65886 20.5717 2.65607C20.5661 2.65603 20.5606 2.656 20.555 2.65596C19.3744 2.65034 18.1855 2.64469 17.0169 2.63889C16.5163 2.63643 16.0158 2.63396 15.5154 2.6315C14.2446 2.62525 12.9614 2.61902 11.7019 2.61256C11.0352 2.60912 10.3622 2.60575 9.68812 2.60229C8.59439 2.59667 7.49357 2.59104 6.39668 2.58532C4.62329 2.57607 2.85864 2.5666 1.09069 2.55701C0.801558 2.55541 0.523684 2.54766 0.319439 2.53496C0.115267 2.52223 6.4878e-05 2.50567 0.000301115 2.48809C0.000624453 2.4705 0.116651 2.45289 0.321399 2.43844C0.526012 2.42404 0.803525 2.41408 1.09243 2.41005C2.86149 2.38556 4.62825 2.36126 6.40275 2.33708C7.49973 2.32213 8.60007 2.30707 9.69392 2.29227C10.3682 2.28314 11.0406 2.27412 11.7076 2.26507C12.9671 2.24803 14.2523 2.2309 15.5231 2.21399C16.0235 2.20732 16.5239 2.20065 17.0244 2.19397C18.1962 2.17834 19.3882 2.16273 20.5719 2.14721C20.579 2.14712 20.5861 2.14702 20.5933 2.14693C21.1759 2.13929 21.7564 2.13165 22.3305 2.12409C24.103 2.10094 25.8613 2.07801 27.66 2.0551C28.5906 2.04291 29.5549 2.03077 30.515 2.01856C31.0493 2.01176 31.5828 2.00495 32.1068 1.99822C32.3932 1.99461 32.6837 1.99101 32.9757 1.98738C39.6752 1.90259 46.3293 1.82042 53.0419 1.7407C59.7409 1.66103 66.4253 1.58404 73.1162 1.50963C79.8128 1.4352 86.4988 1.36349 93.1905 1.29436C135.671 0.8548 178.283 0.498453 220.943 0.266868C227.034 0.233617 233.274 0.202856 239.367 0.175037C244.944 0.149757 250.375 0.126858 255.98 0.105966C256.568 0.103755 257.158 0.101568 257.75 0.0994047C259.618 0.0924671 261.541 0.085755 263.523 0.0791727Z" fill="black"/>
</svg>
