<svg width="59" height="66" viewBox="0 0 59 66" fill="none" xmlns="http://www.w3.org/2000/svg">
<g clip-path="url(#clip0_25_122)">
<path opacity="0.4" d="M5.84381 9.82022C3.43756 10.789 1.5 13.6952 1.5 16.2577V29.9765C1.5 45.2578 12.5938 59.5703 27.7499 63.7578C28.7811 64.039 29.9064 64.039 30.9377 63.7578C46.0939 59.5703 57.1877 45.2578 57.1877 29.9765L57.2189 16.2577C57.2189 13.6952 55.2499 10.789 52.8749 9.82022L35.4686 2.69531C31.5624 1.10156 27.1561 1.10156 23.2499 2.69531L14.5468 6.25777" stroke="#755840" stroke-width="3" stroke-linecap="round" stroke-linejoin="round"/>
<path d="M23.2189 2.69531C27.1252 1.10156 31.5314 1.10156 35.4377 2.69531L52.8436 9.82022C55.2186 10.789 57.1877 13.6952 57.1877 16.2577V29.9765C57.1877 45.2578 46.0939 59.5703 30.9377 63.7578C29.9064 64.039 28.7811 64.039 27.7499 63.7578C12.5938 59.5703 1.5 45.2578 1.5 29.9765" stroke="#755840" stroke-width="3" stroke-linecap="round" stroke-linejoin="round"/>
</g>
<defs>
<clipPath id="clip0_25_122">
<rect width="58.7189" height="65.4688" fill="white"/>
</clipPath>
</defs>
</svg>
