<svg width="17" height="17" viewBox="0 0 17 17" fill="none" xmlns="http://www.w3.org/2000/svg">
<path d="M3.7948 16.0135V5.20868H0.210662V16.0135H3.7948ZM2.0037 3.73398C3.25324 3.73398 4.03144 2.9041 4.03144 1.86699C4.00835 0.806747 3.25324 0 2.02774 0C0.801286 0 0 0.806747 0 1.86699C0 2.9041 0.777237 3.73398 1.98061 3.73398H2.0037ZM5.7783 16.0135H9.36244V9.97976C9.36244 9.65687 9.38553 9.33398 9.48076 9.10361C9.73952 8.45783 10.3292 7.78988 11.32 7.78988C12.6166 7.78988 13.1351 8.78072 13.1351 10.2333V16.0125H16.7193V9.81783C16.7193 6.49928 14.9512 4.95518 12.5936 4.95518C10.6601 4.95518 9.81166 6.03759 9.33936 6.77494H9.3634V5.20868H5.7783C5.82543 6.22265 5.7783 16.0135 5.7783 16.0135Z" fill="white"/>
</svg>
