<svg width="502" height="4" viewBox="0 0 502 4" fill="none" xmlns="http://www.w3.org/2000/svg">
<path d="M211.999 0.0795711C224.884 0.0256658 237.235 0.283337 250.145 0.267043C266.185 0.246881 282.436 -0.0335713 298.52 0.00335699C314.473 0.0403996 330.538 0.102237 346.527 0.182838C362.528 0.263441 378.539 0.362737 394.55 0.474588C410.531 0.586448 426.56 0.710834 442.559 0.842163C453.427 0.931369 464.301 1.02381 475.17 1.11754C479.94 1.15862 484.695 1.19992 489.464 1.24138C493.026 1.27238 496.574 1.30339 500.135 1.3344C500.63 1.33877 501.104 1.35651 501.453 1.38467C501.803 1.41287 502 1.44898 502 1.48629C501.999 1.52363 501.8 1.55982 501.45 1.58792C501.099 1.61594 500.624 1.63343 500.129 1.63763C496.538 1.66767 492.961 1.69771 489.368 1.72775C485.381 1.76108 481.411 1.79448 477.423 1.82762C476.796 1.67448 475.935 1.55833 474.324 1.50705C473.501 1.4809 472.304 1.47003 471.419 1.4985C470.624 1.52408 470.026 1.56968 469.458 1.61313C468.864 1.65858 468.3 1.70174 467.574 1.71698C466.343 1.74288 465.174 1.80792 463.946 1.87626C463.5 1.90113 463.045 1.92648 462.577 1.9505C458.772 1.98173 454.969 2.01275 451.171 2.04353C449.7 2.02728 448.349 2.01415 447.204 2.02049C446.176 2.02617 445.236 2.05857 444.3 2.09886C443.712 2.10358 443.124 2.1083 442.536 2.11303C438.734 2.14338 434.935 2.17329 431.138 2.20298C428.167 2.16236 425.064 2.12294 421.025 2.10594C419.28 2.09861 417.561 2.0767 415.91 2.05569C413.474 2.02466 411.18 1.99551 409.164 2.0178C407.818 2.0327 406.403 2.01126 404.994 1.98989C403.106 1.96123 401.214 1.93264 399.499 1.99187C398.421 2.02912 397.432 2.07436 396.517 2.11632C395.06 2.18308 393.79 2.24148 392.639 2.24572C390.467 2.25366 388.59 2.3025 386.937 2.34559C384.948 2.39742 383.293 2.44093 381.82 2.39482C381.598 2.38783 381.343 2.37853 381.056 2.36795C379.546 2.31222 377.132 2.22307 373.68 2.27334C372.447 2.29125 371.285 2.33723 370.151 2.38236C368.499 2.44805 366.897 2.51184 365.185 2.4842C364.929 2.48006 364.662 2.46248 364.419 2.44642C364.11 2.42601 363.84 2.40818 363.678 2.42381C363.207 2.46966 362.458 2.5204 361.645 2.57564C361.049 2.61621 360.416 2.65924 359.834 2.70437C355.395 2.73128 350.932 2.75729 346.494 2.78216C344.469 2.79356 342.409 2.80475 340.373 2.8157C339.33 2.74738 338.264 2.68589 337.141 2.63953C335.678 2.57895 333.753 2.5611 331.294 2.53804C329.479 2.52108 327.388 2.50125 324.921 2.45974C320.362 2.38289 315.711 2.40355 312.708 2.44807C312.075 2.45748 311.439 2.4675 310.76 2.47841C308.199 2.51976 304.94 2.57155 298.85 2.63092C293.04 2.68715 288.139 2.70478 284.435 2.7182C282.55 2.72505 280.995 2.73065 279.783 2.73986C277.719 2.75562 275.193 2.77039 272.671 2.78526C268.681 2.80855 264.72 2.8322 262.448 2.86048C261.641 2.87054 260.794 2.88283 259.882 2.89599C257.357 2.93245 254.311 2.97651 250.099 3.00532C245.712 3.03555 242.932 3.02275 240.108 2.99049C238.958 2.97739 237.943 2.92051 236.884 2.86178C235.388 2.77844 233.83 2.69149 231.735 2.72142C231.246 2.72841 230.725 2.74314 230.181 2.7586C229.172 2.78702 228.075 2.81786 226.959 2.80695C226.57 2.80315 226.227 2.78787 225.892 2.7729C225.522 2.75642 225.161 2.74032 224.752 2.74007C223.221 2.73918 221.748 2.74567 220.409 2.75156C218.693 2.75915 217.262 2.76554 216.376 2.75331C214.799 2.73148 213.069 2.75684 211.305 2.78275C209.961 2.80253 208.609 2.82268 207.305 2.82204C206.867 2.82182 206.41 2.82236 205.937 2.82361C202.32 2.83313 197.797 2.88285 193.099 2.95557C191.104 2.98669 189.395 2.95441 187.209 2.91309C185.85 2.88739 184.325 2.85802 182.408 2.83859C181.315 2.82761 180.392 2.86226 179.54 2.89429C178.756 2.92381 178.03 2.95111 177.287 2.93869C176.631 2.9277 176.217 2.87446 175.824 2.8239C175.39 2.76763 174.966 2.71474 174.271 2.72713C173.9 2.73373 173.45 2.76211 172.916 2.79584C172.705 2.80918 172.479 2.8233 172.241 2.83733C172.253 2.82628 172.256 2.81642 172.256 2.80896C172.257 2.75625 171.549 2.73041 170.857 2.70512C170.581 2.69502 170.306 2.68506 170.08 2.67344C169.251 2.6307 167.677 2.62776 166.461 2.6333C165.949 2.63563 165.485 2.62061 164.945 2.60308C164.465 2.58752 163.926 2.56996 163.239 2.56085C162.847 2.55566 162.547 2.54125 162.298 2.52923C162.119 2.52052 161.966 2.51308 161.824 2.51142C161.702 2.51 161.602 2.5254 161.491 2.54274C161.411 2.55523 161.324 2.56875 161.218 2.57773C160.963 2.59917 160.627 2.60641 160.395 2.60045C160.287 2.5977 160.202 2.59207 160.117 2.58647C160.019 2.57994 159.921 2.57337 159.786 2.57137C159.168 2.5622 158.567 2.58124 157.945 2.60101C157.26 2.62275 156.548 2.64535 155.757 2.63252C155.508 2.62848 155.243 2.61828 154.987 2.60839C154.719 2.59803 154.458 2.58804 154.237 2.58584C153.333 2.57697 152.473 2.61734 151.69 2.65448C151.169 2.67918 150.678 2.70242 150.222 2.70884C149.388 2.72059 148.941 2.76727 148.612 2.80173C148.441 2.81959 148.302 2.83425 148.156 2.83902C148.023 2.83819 147.887 2.83713 147.755 2.83593C147.633 2.833 147.507 2.82997 147.389 2.83145C147.38 2.83156 147.371 2.83179 147.362 2.8319C146.62 2.82334 145.875 2.81022 145.145 2.7971C143.502 2.76766 141.887 2.73856 140.189 2.76378C139.819 2.76923 139.441 2.7892 139.057 2.80949C138.587 2.83436 138.107 2.85979 137.618 2.85977C136.454 2.8597 135.283 2.83298 134.134 2.80667C132.403 2.76711 130.685 2.72868 129.13 2.78328C128.615 2.8013 128.114 2.83004 127.613 2.859C127.333 2.87514 127.052 2.89142 126.769 2.90578C126.829 2.88082 126.861 2.85747 126.891 2.8357C126.952 2.79082 127.005 2.75241 127.277 2.71894C127.92 2.63986 128.65 2.53158 128.569 2.45485C128.547 2.43403 128.564 2.41068 128.584 2.38717C128.633 2.32818 128.682 2.26793 128.083 2.24295C127.678 2.22612 126.65 2.18787 125.98 2.23533C125.835 2.24567 125.747 2.26542 125.649 2.28737C125.473 2.32681 125.264 2.37352 124.635 2.38655C124.529 2.38874 124.414 2.3908 124.296 2.39276C123.822 2.40056 123.292 2.4092 123.094 2.44112C122.867 2.4779 122.915 2.51885 122.972 2.56661C123.046 2.6288 123.134 2.70266 122.644 2.79394C122.547 2.81199 122.362 2.81874 122.222 2.82387C122.123 2.82748 122.048 2.83035 122.04 2.8357C122.032 2.84184 122.063 2.85444 122.104 2.87037C122.245 2.92659 122.49 3.02482 121.467 3.0329C121.19 3.03508 120.873 3.03156 120.59 3.02838C120.173 3.02368 119.822 3.01984 119.775 3.03625C119.758 3.04247 119.745 3.04919 119.735 3.05614C119.398 3.05548 119.062 3.05482 118.727 3.05417C118.296 3.03648 117.692 3.04047 116.94 3.04554C116.758 3.04678 116.566 3.04801 116.366 3.04906C115.707 3.04763 115.048 3.04623 114.392 3.04474C113.872 3.03859 113.315 3.02743 112.724 3.00858C111.541 2.97079 110.515 2.90481 109.515 2.84032C109.093 2.81314 108.676 2.78616 108.254 2.76172C108.418 2.75783 108.567 2.75343 108.681 2.74773C109.464 2.70875 109.779 2.63704 110.068 2.57104C110.261 2.52713 110.443 2.48573 110.744 2.45828C111.296 2.408 111.24 2.352 111.2 2.31059C111.178 2.28912 111.162 2.27152 111.236 2.26073C111.295 2.25209 111.432 2.24759 111.573 2.24293C111.697 2.23887 111.824 2.23463 111.906 2.22753C112.895 2.14128 112.597 2.0947 112.164 2.0269C111.925 1.98951 111.646 1.94562 111.518 1.88508C111.408 1.82088 111.445 1.80182 111.963 1.774C111.559 1.74369 111.156 1.71338 110.752 1.68308C110.594 1.68579 110.474 1.70623 110.306 1.74007C110.006 1.80051 109.027 1.8261 108.265 1.84612C107.912 1.85539 107.606 1.86349 107.432 1.87328C106.509 1.92535 106.775 1.99152 107.015 2.04973C107.147 2.08176 107.266 2.11143 107.173 2.13499C107.133 2.14506 107.19 2.15467 107.247 2.16448C107.291 2.17205 107.337 2.17976 107.339 2.18786C107.352 2.24674 106.803 2.29273 106.293 2.33545C106 2.35991 105.722 2.38338 105.568 2.40752C105.522 2.41488 105.484 2.42234 105.449 2.42958C105.398 2.44015 105.349 2.45023 105.271 2.45902C105.094 2.47902 104.729 2.49352 104.329 2.50934C104.125 2.51745 103.911 2.52592 103.709 2.53568C103.447 2.54833 103.353 2.57203 103.254 2.5968C103.184 2.6143 103.11 2.63233 102.975 2.64749C102.73 2.67492 102.236 2.68652 101.778 2.69729C101.578 2.70198 101.386 2.70662 101.223 2.71223C101.157 2.71452 101.125 2.71866 101.118 2.72419C100.367 2.7458 99.6379 2.76774 98.9362 2.78918C95.4214 2.8967 92.3671 2.99016 87.8333 2.95225C86.9701 2.94511 86.0449 2.95146 85.1124 2.96448C82.1409 2.95479 79.1338 2.94476 76.1664 2.93417C75.5766 2.88383 74.8491 2.84264 73.9932 2.81168C72.3818 2.75358 70.7459 2.74731 68.7881 2.74013C67.3434 2.73481 65.74 2.72887 63.8776 2.70103C60.7255 2.65435 57.5128 2.61774 53.8711 2.60874C50.2513 2.59975 46.1075 2.60088 43.1685 2.60894C41.5696 2.6133 39.8935 2.57448 38.3241 2.53844C36.1197 2.48772 34.1498 2.44231 32.9398 2.5295C32.5543 2.55735 32.1819 2.60415 31.8196 2.64963C31.5616 2.68201 31.3072 2.71365 31.058 2.73754C30.3942 2.73403 29.7301 2.7306 29.0666 2.72703C27.8858 2.67941 26.0473 2.63141 24.276 2.7009C23.5909 2.69712 22.9068 2.69338 22.243 2.68943C20.7965 2.68148 19.3826 2.67317 17.9571 2.66482C17.4919 2.66203 17.0219 2.65926 16.5498 2.65647C16.5454 2.65643 16.5409 2.65639 16.5364 2.65636C15.5866 2.65074 14.6302 2.64509 13.69 2.63929C13.2873 2.63682 12.8846 2.63436 12.482 2.63189C11.4597 2.62564 10.4273 2.61941 9.4141 2.61296C8.87772 2.60951 8.33628 2.60614 7.79399 2.60268C6.91408 2.59707 6.02847 2.59143 5.14602 2.58572C3.71933 2.57647 2.29966 2.567 0.877342 2.55741C0.644733 2.55581 0.421171 2.54805 0.256833 2.53535C0.0925545 2.52263 -0.000156364 2.50607 1.72952e-07 2.48848C0.000226754 2.47089 0.0935356 2.45329 0.258227 2.43884C0.422808 2.42444 0.646047 2.41448 0.878463 2.41044C2.30161 2.38595 3.72291 2.36166 5.15043 2.33747C6.03292 2.32252 6.91811 2.30747 7.79806 2.29266C8.34054 2.28353 8.88141 2.27452 9.41797 2.26547C10.4312 2.24843 11.4651 2.2313 12.4875 2.21439C12.89 2.20772 13.2926 2.20104 13.6952 2.19437C14.6379 2.17874 15.5968 2.16313 16.549 2.14761C16.5548 2.14751 16.5605 2.14742 16.5663 2.14733C17.035 2.13969 17.5019 2.13205 17.9638 2.12448C19.3897 2.10134 20.8042 2.07841 22.2512 2.0555C22.9998 2.04331 23.7756 2.03116 24.5479 2.01896C24.9778 2.01216 25.4069 2.00534 25.8285 1.99862C26.0589 1.99501 26.2926 1.99141 26.5275 1.98778C31.917 1.90299 37.2701 1.82082 42.6702 1.7411C48.0593 1.66143 53.4368 1.58445 58.8194 1.51004C64.2067 1.4356 69.5854 1.36389 74.9687 1.29476C109.144 0.855201 143.424 0.498854 177.744 0.267267C182.644 0.234016 187.664 0.203255 192.566 0.175436C197.053 0.150155 201.422 0.127255 205.932 0.106363C206.404 0.104153 206.879 0.101966 207.355 0.0998031C208.858 0.0928655 210.404 0.0861534 211.999 0.0795711Z" fill="black"/>
</svg>
