<svg width="211" height="235" viewBox="0 0 211 235" fill="none" xmlns="http://www.w3.org/2000/svg">
<g clip-path="url(#clip0_25_1108)">
<path d="M237.255 273.104C237.19 273.189 237.112 273.254 237.03 273.29C236.808 273.386 235.831 271.448 235.306 270.407C232.461 264.759 230.658 261.291 229.466 259.159C228.826 258.017 227.736 256.003 227.041 254.682C226.345 253.355 225.5 251.772 225.161 251.16C224.818 250.538 224.229 249.464 223.826 248.717C223.485 248.088 223.052 247.318 222.926 247.222C222.891 247.171 222.559 246.596 222.099 245.717C221.657 244.872 220.934 243.594 220.453 242.808C218.646 239.854 217.89 238.583 217.457 237.771C217.21 237.306 216.677 236.424 216.269 235.805C215.556 234.72 215.36 234.581 214.368 234.45L212.489 234.2C211.99 234.135 210.879 234.044 210.013 233.999C207.72 233.878 202.472 232.987 200.494 232.383C199.506 232.081 197.857 231.902 196.819 231.988C195.836 232.068 193.438 231.952 191.583 231.736C189.696 231.515 187.125 231.241 185.918 231.13C182.137 230.783 176.89 228.402 168.907 223.416C168.126 222.929 167.116 222.334 166.844 222.222C164.71 221.348 155.342 214.338 154.469 212.963C154.305 212.704 154.288 212.369 154.43 212.182C154.726 211.793 157.194 211.523 158.49 211.964C159.007 212.139 161.144 212.843 163.233 213.527C165.329 214.212 168.029 215.189 169.253 215.705L169.46 215.793C171.694 216.732 171.694 216.732 174.803 218.38L175.078 218.526C176.516 219.287 178.383 220.27 179.252 220.718C180.119 221.168 181.037 221.658 181.314 221.823C181.59 221.986 182.653 222.565 183.647 223.094C184.651 223.628 186.682 224.724 188.181 225.54C189.681 226.357 191.781 227.472 192.865 228.028C193.939 228.58 195.591 229.436 196.516 229.918C198.843 231.134 202.05 232.156 205.097 232.654C206.963 232.958 213.938 233.85 214.444 233.828L214.559 233.822L214.634 233.728C214.989 233.261 208.51 223.545 208.443 223.448C207.277 221.749 206.16 220.059 206.002 219.758C205.607 219.002 196.043 205.195 195.452 204.527C195.189 204.229 194.958 203.895 194.91 203.77C194.828 203.563 194.468 203.047 194.172 202.669C193.852 202.264 192.702 200.768 191.623 199.356C189.546 196.635 189.266 196.74 189.132 196.792C189.024 196.786 188.183 196.562 186.993 196.125C180.986 193.92 178.287 193.242 175.44 193.226C173.642 193.216 169.54 192.619 168.788 192.258C168.594 192.165 168.236 192.03 167.969 191.949C167.727 191.876 166.388 191.384 164.984 190.849C163.576 190.314 162.105 189.792 161.705 189.683C161.375 189.594 161.093 189.411 161.05 189.341C160.995 189.189 160.876 189.082 160.729 189.061C160.584 189.04 160.442 189.104 160.339 189.239C160.041 189.087 157.59 188.759 157.101 188.696C155.634 188.505 154.722 188.346 154.463 188.281C154.394 188.197 154.22 188.133 153.481 188.181C153.021 188.212 152.661 188.161 152.59 188.124C152.425 187.981 152.133 187.943 151.864 188.04C151.733 188.074 150.864 188.069 149.649 187.965C148.51 187.866 147.256 187.839 146.793 187.9C146.372 187.958 144.958 187.882 143.643 187.731C142.281 187.576 140.182 187.439 138.866 187.419C134.305 187.35 117.55 183.67 114.64 182.098C114.159 181.837 113.273 181.494 112.706 181.349C111.407 181.015 103.545 176.622 100.336 174.437C97.2413 172.331 94.8673 170.806 93.8247 170.25C93.3682 170.007 93.0449 169.668 92.9946 169.525C92.9298 169.344 92.9733 169.257 93.0096 169.208C93.0987 169.091 93.5489 168.731 95.6155 168.988C99.0264 169.413 105.846 170.757 107.387 171.305C108.194 171.592 109.13 171.896 109.474 171.982C110.828 172.32 114.537 173.82 115.982 174.614C116.479 174.887 117.709 175.481 118.671 175.911C119.613 176.331 120.875 177.037 121.428 177.453C122.56 178.305 126.201 180.236 127.612 180.733C128.078 180.897 129.73 181.557 131.293 182.203C134.197 183.402 134.42 183.298 134.53 183.162C134.509 183.207 134.624 183.237 134.765 183.327C135.065 183.519 136.765 184.097 138.213 184.545C139.843 185.048 141.947 185.718 142.911 186.04C143.908 186.372 145.087 186.659 145.595 186.694C146.072 186.726 146.824 186.845 147.308 186.964C147.808 187.087 150.234 187.367 152.828 187.601C155.388 187.83 157.322 188.055 157.525 188.119C157.703 188.266 158.477 188.259 158.509 188.258C158.79 188.254 158.982 188.243 159.087 188.102L159.151 188.017L159.143 187.875C159.105 187.661 158.924 187.518 157.648 186.689C156.701 186.073 154.873 185.017 153.572 184.334C152.282 183.657 150.767 182.848 150.204 182.533L148.422 181.54C146.123 180.263 139.216 174.663 136.501 171.877C134.919 170.254 133.301 168.603 132.9 168.201L131.359 166.662C130.918 166.221 130.038 165.391 129.439 164.85C128.843 164.312 127.91 163.442 127.401 162.951C126.886 162.454 125.564 161.203 124.489 160.194C123.297 159.075 122.526 158.242 122.449 158.096C122.385 157.935 122.5 157.758 122.551 157.689C122.692 157.503 122.96 157.348 123.177 157.427C125.196 158.159 131.722 162.195 135.219 164.874C138.305 167.237 146.635 174.222 147.429 175.111C147.654 175.363 148.656 176.309 149.663 177.22C150.644 178.108 151.623 179.028 151.804 179.229C152.022 179.472 153.322 180.626 154.454 181.601L158.402 185C161.511 187.676 163.977 189.49 164.838 189.733C165.18 189.829 165.385 189.914 165.464 189.955C165.886 190.433 170.174 191.698 170.22 191.71C171.685 192.116 172.291 192.19 176.125 192.433C178.427 192.579 181.9 193.161 182.519 193.446C182.676 193.519 183.948 194.044 185.361 194.618C186.71 195.167 187.61 195.607 187.808 195.747C187.838 195.822 187.89 195.884 187.961 195.927C188.047 195.98 188.2 196.024 188.43 195.938L188.496 195.914L188.552 195.847C188.646 195.724 188.841 195.466 186.838 192.924C185.742 191.533 184.271 189.662 183.563 188.757C181.832 186.546 178.242 182.219 177.365 181.289C176.991 180.892 176.537 180.378 176.394 180.188C176.241 179.987 175.881 179.559 175.611 179.261C174.214 177.72 171.858 175.011 170.856 173.789C170.233 173.03 169.006 171.598 168.143 170.626C166.192 168.428 159.662 161.185 158.826 160.294C154.571 155.758 151.406 152.52 148.869 150.106C147.177 148.496 145.476 146.869 145.068 146.472C144.656 146.072 143.811 145.265 143.161 144.654C142.526 144.058 141.606 143.093 141.11 142.506C140.243 141.48 139.99 141.348 138.855 141.328C137.565 141.305 135.485 141.006 129.585 139.991C127.441 139.621 125.28 139.305 124.767 139.285C122.845 139.211 113.748 138.118 111.614 137.704C110.386 137.466 108.109 136.907 106.538 136.456C104.959 136.003 101.693 135.268 99.2567 134.816C97.0122 134.4 95.5241 134.057 95.1462 133.93C95.1065 133.858 95.0131 133.688 94.3407 133.74C94.0357 133.764 92.772 133.556 91.4473 133.221C90.1913 132.904 88.574 132.506 87.8692 132.341C87.1956 132.184 86.2963 131.837 85.9064 131.584C85.304 131.193 85.0178 131.141 84.8706 131.177C84.6803 131.093 84.1389 130.765 83.3741 130.207C81.8976 129.126 80.0065 127.948 79.4131 127.896C79.2843 127.859 78.3944 127.348 77.1722 126.531C75.2401 125.239 75.2525 125.169 75.3273 124.715C75.3478 124.584 75.3802 124.498 75.4284 124.434C75.6589 124.131 76.568 124.073 78.5161 124.055C79.2887 124.048 80.4445 124.017 81.0828 123.986C84.6474 123.814 96.0556 125.04 97.233 125.57L97.2518 125.617C97.2957 125.711 97.3707 125.868 98.3687 125.901C98.8934 125.918 100.759 126.336 102.442 126.813C104.161 127.302 105.857 127.773 106.192 127.859C106.529 127.943 107.447 128.226 108.246 128.492C109.044 128.758 110.916 129.329 112.416 129.766C115.433 130.644 123.385 133.426 127.086 134.897C132.138 136.906 132.713 137.161 134.779 138.309C136.98 139.531 137.058 139.478 137.195 139.299C137.195 139.297 137.24 139.239 137.24 139.239L137.242 139.27C137.264 139.415 137.392 139.567 137.62 139.723C137.742 139.807 138.069 140.031 138.251 139.79C138.379 139.622 138.259 139.425 138.219 139.361C138.071 139.116 137.794 138.886 137.51 138.923L137.41 138.937L137.297 139.041L137.248 139.106C137.236 139.008 137.204 138.865 133.216 135.615C131.053 133.852 128.92 132.057 128.465 131.615C127.539 130.721 120.388 124.933 112.848 118.977C110.216 116.899 106.799 113.987 105.232 112.487C103.662 110.985 101.793 109.216 101.087 108.564C100.386 107.917 98.7393 106.328 97.4148 105.02C96.0941 103.715 94.3375 102.049 93.4997 101.306C91.1527 99.2211 86.7229 94.1155 83.6262 89.9254C82.9305 88.9854 82.1964 88.0369 81.9887 87.8103C81.8185 87.6238 80.9138 86.223 79.8398 84.4335C78.8418 82.7737 77.5178 80.5839 76.8891 79.559C76.2784 78.5623 75.4864 77.0088 75.1576 76.1669C74.0603 73.3471 72.3043 68.1571 72.2745 67.7433C72.2749 67.7318 72.2753 67.7203 72.2762 67.71C72.7514 67.9584 74.2739 68.8192 75.7999 69.767C76.3344 70.0995 77.6125 70.8582 77.9517 70.7367C77.9534 70.7504 78.1164 70.8553 78.2793 71.1225C78.5173 71.5124 79.5743 72.4785 80.4621 73.1882C81.5093 74.0267 82.4239 74.8383 82.6218 75.0696C82.865 75.3555 83.6332 76.095 84.3708 76.7551C85.0883 77.3978 85.9917 78.2486 86.3833 78.6515C86.783 79.0615 87.7816 80.0613 88.6177 80.8849C90.5377 82.7808 95.331 88.0681 95.5519 88.4837C95.6389 88.7107 96.1704 89.2859 96.5057 89.6136C98.3054 91.3789 100.723 94.0006 100.883 94.3129C101.032 94.6841 104.725 98.7724 106.322 100.412C106.737 100.838 107.132 101.294 107.227 101.434C107.475 101.804 108.767 103.121 109.77 104.071C110.084 104.367 110.335 104.695 110.376 104.799C110.479 105.058 111.292 105.89 111.814 106.388C112.54 107.083 113.027 107.601 113.085 107.694C113.147 107.868 114.071 108.763 114.465 109.138C115.21 109.85 115.689 110.358 115.747 110.451C115.81 110.632 116.607 111.461 116.767 111.625C117.575 112.46 118.209 113.155 119.846 115.004L121.02 116.338C121.442 116.82 121.869 117.32 121.962 117.445C122.732 118.474 124.605 120.665 125.479 121.555C125.944 122.03 126.553 122.73 126.866 123.151C127.397 123.864 127.604 123.897 127.689 123.899C127.703 123.925 127.721 123.961 127.739 124.007C127.836 124.261 128.067 124.6 128.275 124.796C128.546 125.051 129.751 126.377 131.422 128.254C133.206 130.259 134.859 132.373 136.476 134.718C138.446 137.573 138.704 137.538 138.827 137.522L138.927 137.508L139.004 137.417C139.334 136.983 138.426 131.205 138.055 129.518C137.851 128.595 137.295 125.472 136.815 122.557C136.331 119.625 135.77 116.385 135.562 115.336C135.355 114.286 135.123 113.089 135.044 112.665C134.962 112.231 134.474 110.592 133.954 109.009C133.448 107.468 132.902 105.527 132.763 104.773C132.621 104 132.403 102.86 132.285 102.268C131.792 99.8005 131.92 89.7522 132.526 83.4069C132.613 82.4862 132.662 81.1048 132.637 80.2613C132.614 79.4669 132.827 77.7066 133.101 76.4165C133.383 75.097 133.687 73.5978 133.773 73.1097C133.826 72.8047 133.887 72.6067 133.926 72.5112L134.014 72.4664L134.082 72.3896C134.249 72.1691 134.407 71.5944 134.452 71.4246C134.534 71.1072 134.663 70.8265 134.825 70.6132C134.928 70.478 135.293 70.0578 135.65 70.3301C135.959 70.645 137.591 75.0503 138.296 77.8343C138.568 78.9026 138.984 80.3541 139.204 81.0044C139.828 82.8471 140.953 90.2239 141.82 98.1647C141.985 99.6767 142.448 102.38 142.85 104.189C143.243 105.954 143.778 109.281 144.018 111.455C144.457 115.44 144.802 125.398 144.592 126.032C144.591 126.034 144.59 126.034 144.589 126.036C144.427 126.249 144.485 126.962 144.487 126.97C144.704 129.519 143.034 135.672 141.238 138.943C140.977 139.416 140.714 140.093 140.724 140.402C140.743 141.044 144.542 144.888 146.488 146.683C148.479 148.52 150.061 150.017 150.62 150.594C150.9 150.882 152.418 152.435 154.004 154.052C157.028 157.142 158.016 158.198 160.609 161.112C161.469 162.079 162.416 163.11 162.721 163.409C163.015 163.699 164.638 165.518 166.338 167.466C169.508 171.096 169.703 171.069 169.831 171.053L169.932 171.04L170.001 170.954C170.377 170.459 168.553 158.045 168.175 156.402C167.724 154.436 166.766 151.429 166.04 149.698C164.91 147.001 162.489 139.842 162.055 137.915C161.654 136.136 161.407 134.105 161.425 132.741C161.435 131.935 161.28 129.762 161.078 127.892C160.712 124.514 160.841 120.714 161.554 113.874C161.767 111.832 161.956 109.754 161.978 109.242C162.036 107.805 162.778 100.29 162.866 99.9486C162.867 99.9512 162.867 99.9525 162.87 99.9504C162.885 99.9294 162.972 99.6547 163.092 97.891C163.179 96.5991 163.418 96.1115 163.552 95.9362C163.66 95.7933 163.757 95.7455 163.959 95.8987C164.195 96.1159 165.013 98.3986 165.168 99.5471C165.212 99.8624 165.4 100.674 165.599 101.398C165.79 102.092 166.019 103.039 166.111 103.511C166.203 103.992 166.34 104.592 166.416 104.851C166.686 105.776 167.437 108.838 167.46 109.069C167.472 109.263 167.814 110.446 167.994 111.043C168.826 113.813 169.393 119.332 169.209 122.856C168.965 127.503 168.967 127.643 169.238 130.323C169.721 135.079 169.782 139.007 169.458 144.328C169.387 145.508 169.232 148.281 169.37 148.527C169.389 148.563 169.384 148.63 169.338 148.691C169.193 148.88 169.129 149.269 169.143 149.539C169.175 150.214 169.242 151.617 169.156 151.807L169.155 151.808C169.002 152.008 169.051 152.67 169.069 152.869C169.107 153.267 169.131 154.259 169.118 155.037C169.104 155.84 169.241 157.813 169.42 159.435C169.986 164.548 170.098 165.694 170.213 167.61L170.256 168.36C170.481 172.254 170.508 172.318 173.15 175.205L173.656 175.76C173.887 176.013 174.349 176.585 174.707 177.06C175.043 177.505 175.506 178.026 175.799 177.986C175.798 177.986 175.796 177.987 175.796 177.988C175.782 178.006 175.851 178.085 175.893 178.202C175.998 178.501 176.361 178.949 176.647 179.218C177.278 179.811 180.903 184.158 183.219 187.102C184.136 188.266 185.202 189.561 185.598 189.99C185.977 190.401 186.615 191.225 187.021 191.828C187.432 192.44 188.691 194.127 189.827 195.589C190.964 197.052 192.73 199.387 193.764 200.795C194.807 202.216 195.905 203.685 196.215 204.073C196.504 204.435 196.89 205.049 197.042 205.385C197.349 206.059 197.443 206.166 197.607 206.184L197.744 206.199L197.84 206.083C197.922 205.975 198.047 205.811 196.935 202.605C195.606 198.773 195.564 198.611 194.742 193.94C194.366 191.808 193.914 189.388 193.734 188.542C193.559 187.713 193.287 185.764 193.14 184.287C192.992 182.8 192.656 180.203 192.405 178.617C190.764 168.272 190.449 165.912 190.414 163.763C190.399 162.792 190.365 161.289 190.334 161.125C190.322 161.057 190.326 160.77 190.363 160.433C190.397 160.126 190.574 158.017 190.752 155.784C190.929 153.58 191.239 150.682 191.433 149.454C191.761 147.371 192.056 146.291 193.867 140.569C194.249 139.364 194.718 137.524 194.893 136.548C195.065 135.588 195.25 134.973 195.442 134.72C195.483 134.666 195.525 134.631 195.546 134.634C195.609 134.644 195.958 134.794 196.664 136.783C197.046 137.856 197.663 139.583 198.054 140.667C199.355 144.284 200.589 157.211 199.888 159.878C199.587 161.021 199.8 161.183 199.871 161.236C199.869 161.237 199.868 161.237 199.866 161.241C199.826 161.294 199.776 161.817 199.603 162.591C199.419 163.412 199.258 165.368 199.25 166.865C199.242 168.388 199.153 172.414 199.052 175.839C198.962 178.915 198.877 182.241 198.892 182.485C198.903 182.665 198.903 183.895 198.888 185.369C198.861 187.889 199.032 197.088 199.135 197.51C199.143 197.558 199.143 197.751 199.133 198.037C199.126 198.033 199.12 198.028 199.114 198.021C198.963 197.908 198.891 197.69 198.926 197.573C199.025 197.236 198.927 195.902 198.835 195.088C198.387 191.096 198.306 188.299 198.383 179.331C198.474 168.739 198.476 166.747 198.395 165.994C198.349 165.554 198.688 162.475 199.03 160.495C199.691 156.687 198.628 144.219 197.358 140.875C196.734 139.233 196.542 139.258 196.388 139.278L196.287 139.291L196.219 139.377C195.765 139.974 195.121 158.894 195.147 159.04C195.162 159.123 195.152 159.583 195.104 160.142C195.094 160.262 195.078 160.361 195.064 160.44C195.035 160.317 195.011 160.145 195.002 159.913C194.986 159.481 194.913 158.327 194.843 157.367C194.775 156.424 194.734 155.301 194.755 154.913C194.776 154.506 194.778 153.559 194.758 152.844C194.724 151.566 194.727 151.328 194.793 150.284C194.812 149.988 194.871 148.846 194.926 147.703L195.06 144.901C195.081 144.476 195.076 143.544 195.048 142.819C195.014 141.885 195.005 141.663 194.771 141.589L194.608 141.537L194.457 141.702C194.403 141.772 194.352 141.879 194.254 142.127C193.573 143.847 192.53 148.15 192.263 150.349C192.003 152.482 191.32 158.798 191.535 159.19C191.536 159.213 191.506 159.353 191.421 159.464C191.223 159.722 191.208 160.216 191.379 160.668C191.512 161.013 191.494 161.275 191.464 161.327C191.23 161.632 191.283 162.955 191.295 163.217C191.377 164.925 192.587 174.072 193.257 178.046C193.512 179.565 193.891 182.396 194.103 184.359C194.315 186.331 194.752 189.309 195.079 190.999C195.397 192.64 195.802 194.884 195.963 195.901C196.213 197.481 197.263 201.992 197.665 202.299C197.681 202.344 197.849 202.859 198 203.603C198.283 204.986 198.58 205.055 198.692 205.08L198.846 205.115L199.03 204.949C199.113 204.839 199.165 204.658 199.189 204.38C199.202 204.224 199.293 204.014 199.413 203.855C199.444 203.815 199.476 203.778 199.511 203.746L199.607 203.639C199.817 203.363 200.03 202.807 200.126 202.284C200.195 201.9 200.267 201.661 200.309 201.553L200.381 201.51L200.452 201.429C200.562 201.284 200.713 200.966 200.856 200.578C201.036 200.09 201.463 199.232 201.789 198.708C202.133 198.151 202.589 197.347 202.803 196.914C205.645 191.172 207.013 188.945 211.952 182.022C212.56 181.171 213.067 180.474 213.494 179.914C214.661 178.382 215.084 178.086 215.234 178.109C215.26 178.113 215.322 178.171 215.394 178.363C215.49 178.621 215.536 179.023 215.492 179.224C215.437 179.474 215.335 179.999 215.263 180.398C215.193 180.789 215.051 181.195 214.967 181.315C214.811 181.538 214.65 182.087 214.572 182.516C214.492 182.955 214.217 183.961 213.96 184.759C213.697 185.573 213.419 186.519 213.34 186.868C213.051 188.138 210.223 194.317 208.755 196.887C207.684 198.762 205.974 201.357 205.161 202.424C204.866 202.811 204.763 202.902 204.739 202.922C204.63 203.006 204.026 203.653 203.802 203.894C203.375 204.357 202.273 205.348 201.346 206.101C200.53 206.764 200.101 207.132 199.875 207.43C199.633 207.749 199.61 208.006 199.652 208.318C199.719 208.814 202.079 212.424 203.649 214.731C207.211 219.958 208.828 222.417 209.617 223.804C209.792 224.111 210.154 224.644 210.409 224.968C210.883 225.57 213.146 229.149 213.97 230.598C214.423 231.396 215.219 232.604 215.466 232.825C215.508 232.876 215.806 233.356 216.219 234.084C217.665 236.627 217.884 236.989 218.337 237.602C218.573 237.923 218.808 238.334 218.85 238.472C218.924 238.716 219.336 239.381 219.685 239.883C220.104 240.483 220.416 241.031 220.455 241.157C220.528 241.393 220.818 241.868 221.044 242.174C221.281 242.491 221.753 243.267 222.074 243.87C223.464 246.463 224.495 248.336 225.418 249.946C225.989 250.944 226.43 251.832 226.485 252.038C226.569 252.356 226.809 252.682 227.089 252.655L227.196 252.645L227.287 252.542C227.494 252.272 227.35 251.087 227.278 250.59C226.86 247.688 226.597 242.838 226.652 239.063C226.652 239.027 226.705 235.423 226.649 235.166C226.628 235.018 226.604 233.439 226.603 231.337C226.603 229.316 226.553 227.054 226.492 226.295C226.323 224.212 226.326 221.038 226.431 220.728C226.431 220.726 226.432 220.724 226.434 220.722C226.558 220.56 226.567 220.048 226.549 219.804C226.486 218.852 227.159 214.839 228.8 206.387C230.588 197.192 230.663 196.862 231.5 194.651C231.729 194.044 232.157 192.809 232.128 192.473C232.118 192.344 232.202 192.07 232.326 191.908C232.552 191.611 233.022 189.87 233.282 188.774C233.616 187.372 233.863 186.634 234.111 186.309C234.241 186.138 234.347 186.053 234.706 186.326C234.819 186.574 235.368 189.683 235.935 193.833C236.907 200.955 236.994 204.315 236.312 208.214C235.694 211.747 234.386 218.446 234.262 218.791L234.261 218.793C234.09 219.018 232.95 223.876 232.548 225.682C232.334 226.645 232.065 227.416 231.967 227.545C231.791 227.776 231.672 228.151 231.784 228.419C231.791 228.545 231.58 229.497 231.154 230.801C230.744 232.062 230.305 233.522 230.175 234.058C229.768 235.723 228.859 240.268 228.655 241.654L228.082 245.564C227.621 248.704 228.397 255.365 229.465 257.444L231.666 261.722C233.667 265.61 235.106 268.249 235.611 268.967C235.781 269.206 235.832 269.415 235.82 269.469C235.818 269.471 235.816 269.475 235.814 269.477C235.652 269.69 235.686 269.985 235.911 270.156C235.982 270.216 236.261 270.609 236.574 271.157C236.846 271.63 237.199 272.192 237.355 272.352C237.488 272.486 237.446 272.852 237.255 273.104ZM227.661 229.331C227.523 229.513 227.516 231.265 227.539 232.699C227.566 234.375 227.532 236.901 227.464 238.33C227.409 239.457 227.394 240.847 227.63 241.065L227.714 241.142L227.848 241.134L227.949 241.121L228.081 240.99C228.232 240.793 228.267 240.416 228.252 240.153C228.172 238.789 229.044 234.483 229.917 231.927C230.429 230.425 231.013 228.503 231.218 227.64C231.42 226.789 231.761 225.462 231.969 224.71C232.41 223.124 232.455 222.957 233.391 219.389C233.787 217.88 234.253 215.774 234.429 214.694C234.605 213.616 234.966 211.452 235.237 209.85C235.867 206.121 236.09 202.853 235.879 200.399C235.416 194.983 235.263 194.604 235.054 194.437L234.972 194.371L234.832 194.373L234.731 194.386L234.636 194.495C234.345 194.876 233.888 197.231 233.837 197.498C233.498 199.265 233.21 200.406 233.131 200.55C233.082 200.501 233.095 200.457 233.126 200.414C233.335 200.132 233.355 199.19 233.337 198.734L233.249 196.494C233.222 195.802 233.132 195.532 232.905 195.461C232.824 195.435 232.663 195.421 232.51 195.621C232.266 195.941 231.946 196.988 231.56 198.732C231.329 199.777 231.16 200.469 231.132 200.55C231.045 200.745 230.001 205.902 229.484 208.53C229.252 209.718 228.865 211.98 228.623 213.571C228.351 215.352 228.102 216.549 228.034 216.697C227.898 216.945 227.874 217.453 227.921 217.802C227.965 218.129 227.919 218.426 227.884 218.486C227.638 218.808 227.424 222.106 227.456 222.94C227.464 223.161 227.428 223.359 227.405 223.405C227.304 223.538 227.298 224.125 227.399 225.136C227.509 226.196 227.788 229.012 227.661 229.331C227.663 229.33 227.663 229.33 227.661 229.331ZM191.442 230.762C191.444 230.761 196.008 231.42 196.283 231.058L196.358 230.959L196.328 230.812C196.277 230.637 196.06 230.525 195.887 230.461C195.712 230.397 195.134 230.114 194.65 229.856C194.146 229.587 192.883 228.967 191.854 228.485C189.898 227.567 182.81 223.784 180.7 222.53C180 222.113 179.148 221.636 178.773 221.447C178.413 221.268 177.697 220.885 177.21 220.615C172.035 217.742 168.103 215.795 166.947 215.535C166.618 215.461 165.282 215.037 164.032 214.609C162.75 214.171 160.995 213.618 160.121 213.375C158.968 213.055 158.298 213.004 158.13 213.222C158.036 213.346 158.012 213.486 158.065 213.607C158.099 213.684 158.191 213.816 158.44 213.841C158.527 213.85 158.964 214.015 159.523 214.308C160.011 214.565 161.392 215.211 162.601 215.748C165.526 217.049 171.09 219.968 171.495 220.365C171.509 220.377 171.524 220.392 171.538 220.404C171.39 220.327 171.231 220.275 171.092 220.253C170.781 220.2 170.291 220.045 169.976 219.901C169.111 219.504 168.984 219.452 167.259 218.787C165.907 218.266 164.657 217.695 162.117 216.443C161.745 216.26 160.862 215.902 160.147 215.648C159.377 215.373 159.194 215.309 159.047 215.5C158.838 215.773 158.838 215.773 161.285 217.654C162.755 218.784 165.765 220.755 167.994 222.047C175.609 226.461 177.647 227.553 180.103 228.534C180.175 228.562 180.67 228.783 181.183 229.014C182.686 229.693 185.78 230.303 188.708 230.499C190.29 230.608 191.312 230.721 191.442 230.762ZM209.328 187.478C208.709 188.291 207.996 189.345 207.423 190.3C206.931 191.116 206.069 192.537 205.534 193.414C204.994 194.299 204.343 195.513 204.113 196.065C203.893 196.598 203.294 197.712 202.805 198.498C201.712 200.257 200.063 204.017 199.864 205.204C199.792 205.632 199.749 205.891 199.969 206.018C200.216 206.162 200.423 205.992 201.294 205.282C202.195 204.548 203.283 203.357 204.442 201.836C206.869 198.648 209.183 194.615 210.334 191.56C210.506 191.107 210.657 190.728 210.699 190.65C210.727 190.614 212.374 186.542 212.167 186.185L212.086 186.045L211.818 186.076L211.676 186.228C211.546 186.399 211.361 186.775 211.195 187.207C210.998 187.718 210.245 189.024 209.55 190.059C209.358 190.345 209.191 190.592 209.048 190.807C209.312 190.352 209.521 189.948 209.568 189.759C209.725 189.112 209.725 189.112 210.325 187.934C210.991 186.624 210.777 186.461 210.674 186.383C210.446 186.21 210.209 186.323 209.328 187.478ZM128.744 162.851C128.611 163.027 128.428 163.267 131.042 165.741C132.292 166.923 133.486 168.074 133.761 168.362C137.25 171.987 138.883 173.401 144.035 177.264C147.679 179.995 150.102 181.619 152.397 182.871L155.615 184.628L155.893 184.229L153.821 182.407C152.683 181.405 151.533 180.352 151.258 180.058C150.969 179.749 150.176 178.982 149.451 178.313C148.747 177.664 147.964 176.889 147.705 176.589C147.443 176.285 146.881 175.687 146.482 175.288C146.09 174.897 145.535 174.315 145.273 174.022C144.996 173.713 143.164 172.127 141.189 170.489C139.066 168.726 137.398 167.242 137.173 166.962C136.594 166.242 132.485 163.204 129.966 161.632C128.168 160.512 128.046 160.529 127.966 160.541L127.865 160.555L127.789 160.643C127.371 161.192 132.021 164.769 132.219 164.92C133.308 165.756 134.023 166.397 134.186 166.6L134.192 166.662C134.203 166.721 134.235 166.782 134.281 166.843C134.156 166.738 134.023 166.626 133.882 166.505C132.734 165.517 131.865 164.745 131.774 164.643C131.639 164.494 130.9 163.924 130.264 163.46C129.278 162.736 128.936 162.6 128.744 162.851ZM162.83 106.489C162.709 106.648 162.645 106.946 162.589 108.99C162.565 109.864 162.469 111.088 162.374 111.718C161.882 115.015 161.328 123.697 161.518 125.183C161.727 126.837 162.055 131.713 162.005 132.43C161.829 134.965 162.752 139.055 164.909 145.3C167.329 152.302 167.624 152.349 167.886 152.391L168.03 152.414L168.17 152.275C168.22 152.209 168.249 152.121 168.262 151.994C168.329 151.335 168.573 146.643 168.66 144.386L168.798 140.752C168.835 139.746 168.921 139.023 168.967 138.908C168.968 138.907 168.968 138.907 168.969 138.905C169.137 138.684 169.032 138.033 169.009 137.906C168.943 137.544 168.884 136.88 168.873 136.394C168.832 134.602 168.715 132.772 168.505 130.635C168.241 127.97 168.266 126.551 168.621 124.036C168.634 123.954 168.908 122.014 168.847 121.742C168.83 121.649 168.81 121.018 168.823 120.122C168.858 117.735 168.032 112.63 167.123 109.623L165.936 105.702C165.751 105.091 165.54 104.231 165.458 103.745C165.332 103.006 165.125 102.652 164.841 102.691L164.74 102.705L164.641 102.812C164.506 102.989 164.412 103.356 164.527 106.275C164.555 106.951 164.522 107.467 164.488 107.565C164.261 107.863 164.062 114.111 164.094 115.09C164.114 115.693 164.185 117.37 164.251 118.777C164.28 119.367 164.281 119.875 164.27 120.276C163.924 118.217 163.461 113.297 163.457 110.086C163.455 106.59 163.345 106.505 163.249 106.432L163.054 106.284L162.83 106.489ZM100.713 173.753L103.012 175.299C108.03 178.67 113.467 181.351 118.322 182.845C119.482 183.202 124.022 184.203 128.442 185.075C133.015 185.978 136.361 186.7 136.619 186.809C136.826 186.973 137.131 186.953 137.292 186.741C137.347 186.756 138.053 186.755 139.048 186.866C141.03 187.086 141.096 186.998 141.182 186.888L141.259 186.786L141.22 186.663C141.179 186.529 141.145 186.423 137.822 185.37C130.104 182.923 126.097 181.186 121.329 178.22C117.326 175.731 117.144 175.628 114.811 174.538C112.867 173.629 110.584 172.748 109.262 172.395C108.686 172.241 107.004 171.772 106.718 171.686C104.553 171.029 103.924 170.901 99.2319 170.183C96.9751 169.837 96.9465 169.875 96.8257 170.034L96.7515 170.131L96.783 170.26C96.8248 170.407 96.9507 170.473 97.3568 170.625C97.6964 170.752 98.2736 171.029 98.6707 171.256C99.0798 171.49 100.886 172.302 102.7 173.067C104.596 173.867 105.847 174.497 105.984 174.628C106.002 174.704 106.106 174.8 106.237 174.839C106.377 174.881 106.531 174.852 106.668 174.76C106.723 174.764 107.152 174.893 107.656 175.198C108.363 175.627 108.654 175.794 108.806 175.816C108.886 175.851 109.053 175.935 109.315 176.079C108.787 175.905 108.284 175.727 108.107 175.651C107.866 175.548 106.156 174.981 104.293 174.389L100.92 173.314L100.713 173.753ZM133.967 76.5007C133.507 77.1048 132.87 88.0463 132.633 95.3124C132.465 100.471 133.08 104.269 135.072 110.367C135.459 111.552 136.742 117.646 136.979 119.425C137.258 121.523 138.222 127.234 138.756 129.96C139.059 131.499 139.515 134.282 139.775 136.162L140.347 140.313L141.255 138.663C141.774 137.717 143.476 132.654 143.183 132.15C143.18 132.131 143.197 132.016 143.264 131.927C143.58 131.513 144.355 125.679 144.252 125.272C144.125 124.763 144.201 122.198 144.318 121.909C144.32 121.906 144.321 121.905 144.323 121.903C144.464 121.719 144.488 121.448 144.372 121.238C144.34 121.133 144.261 120.286 144.226 119.076C144.114 115.175 143.064 106.615 142.414 104.303C142.153 103.375 141.772 101.173 141.566 99.3955C140.718 92.1395 140.093 87.6635 139.657 85.7098C139.396 84.5382 139.203 83.5945 139.193 83.481C139.171 83.0731 137.614 77.6379 137.075 76.0115C136.704 74.8936 136.523 74.574 136.239 74.5266C136.136 74.5095 135.984 74.5274 135.843 74.7138C135.638 74.9826 135.624 75.3273 135.794 75.5381C135.447 76.009 135.617 80.2059 135.834 82.1344C135.876 82.4945 135.867 82.7846 135.852 82.8452C135.849 82.8473 135.849 82.849 135.846 82.8511C135.784 82.933 135.766 83.2761 135.819 83.8243C135.858 84.2296 135.853 85.568 135.807 86.8091C135.726 89.0587 136.245 93.2472 138.034 104.739C138.193 105.762 138.33 106.668 138.444 107.458C138.184 107.278 137.95 106.005 137.55 103.378C137.326 101.909 136.896 99.5377 136.591 98.0921C135.865 94.6482 134.974 88.1686 134.949 86.1366C134.912 83.2124 134.788 80.1721 134.666 79.2172C134.603 78.7249 134.564 77.9245 134.581 77.4693C134.594 77.0981 134.571 76.6207 134.381 76.4581L134.292 76.3809L134.139 76.3894L134.046 76.406L133.967 76.5007ZM74.7626 73.0776C74.3836 73.575 78.0823 80.3532 78.7921 81.4805C80.2725 83.8286 83.3721 88.5396 83.8187 89.1161C83.9731 89.315 85.3901 91.1182 86.9633 93.1168C89.8002 96.7194 90.1637 97.1274 92.5098 99.3591C93.1552 99.9731 94.6017 101.4 95.7419 102.547C96.8881 103.7 98.4967 105.254 99.3273 106.01C100.146 106.755 101.11 107.656 101.444 107.985C101.978 108.513 103.644 110.122 106.814 113.176C108.288 114.595 112.322 117.911 119.515 123.614C123.678 126.915 126.661 129.33 126.834 129.513C126.877 129.632 129.044 131.451 130.849 132.946C132.74 134.513 134.812 136.227 134.89 136.286C134.956 136.337 136.917 137.726 136.917 137.726L137.264 137.395L136.601 136.348C135.503 134.615 127.481 124.893 124.511 121.698C124.237 121.404 123.141 120.169 122.063 118.943C118.116 114.45 112.403 108.324 109.59 105.569C109.015 105.004 108.078 104.029 107.544 103.437C106.651 102.451 103.707 99.3047 102.115 97.6354C100.224 95.6559 96.8116 91.868 94.8115 89.5309C93.5301 88.0324 91.9804 86.2876 91.3585 85.6415C90.7391 84.9989 89.4718 83.6492 88.5372 82.6409C87.5979 81.6271 86.1066 80.1301 85.213 79.3044C84.2702 78.4339 83.6517 77.8152 83.5834 77.7213C83.5293 77.5759 82.6842 76.7425 82.3259 76.3926C81.6946 75.7781 80.8526 74.8598 80.4495 74.3457C80.0234 73.8008 78.5692 72.5347 77.1375 71.4644C74.5328 69.5151 74.3737 69.5368 74.2781 69.5487L74.1774 69.5624L74.0955 69.6537C73.9047 69.9049 74.3364 70.6073 75.3785 71.7419C76.5067 72.9686 77.6123 74.3281 78.6646 75.7836C79.3002 76.6625 80.5231 78.2844 81.3855 79.3921C82.3448 80.624 82.9514 81.5226 83.0055 81.6724C83.0917 81.9864 84.2497 83.4564 84.8495 84.1894C85.8634 85.4273 86.6303 86.3848 86.7114 86.5043C86.8061 86.6434 86.9417 86.82 87.0334 86.9032C87.0769 86.9485 87.2911 87.2582 87.5329 87.6469C87.7782 88.0416 88.3817 88.782 88.8774 89.2966C89.3816 89.8197 89.7565 90.2793 89.8026 90.3791C89.87 90.5558 90.1024 90.8779 90.2888 91.0831C90.4791 91.2956 91.0562 91.9822 91.5745 92.6159C92.1 93.2585 92.7057 93.9753 92.9284 94.2169C94.4307 95.858 96.6164 98.5257 97.5283 99.7563C97.2391 99.5327 96.8198 99.1874 96.2115 98.6549C94.924 97.5309 94.0901 96.7266 94.0044 96.6015C93.9255 96.3733 93.1671 95.5992 93.0826 95.5122C90.4084 92.7953 83.3981 84.0117 78.6583 77.4381C75.5391 73.1118 75.2375 72.9322 74.938 72.9722L74.8373 72.9859L74.7626 73.0776ZM131.548 139.138C131.53 139.161 131.595 139.169 131.652 139.212C132.003 139.478 133.884 139.631 133.963 139.638C135.417 139.753 135.511 139.631 135.586 139.533L135.659 139.437L135.6 139.19L135.408 139.089C135.114 138.966 134.506 138.676 134.088 138.459C133.64 138.227 132.88 137.89 132.36 137.691C132.028 137.564 131.824 137.449 131.733 137.384C131.733 137.334 131.721 137.284 131.695 137.239C131.607 137.087 131.409 137.039 131.073 137.084C130.862 137.112 130.518 137.005 130.308 136.845C130.027 136.631 129.426 136.329 128.909 136.142C128.435 135.97 127.073 135.451 125.92 135.004C123.238 133.965 117.267 131.924 112.88 130.549C110.999 129.96 108.416 129.143 107.091 128.722C105.768 128.301 104.025 127.785 103.202 127.574C102.39 127.364 101.309 127.079 100.805 126.938C96.7939 125.823 88.2553 124.737 82.8903 124.661C80.9141 124.633 79.83 124.725 79.67 124.936L79.5838 125.049L79.6205 125.3C79.6878 125.459 79.867 125.57 80.0995 125.598C80.3098 125.623 80.7173 125.77 81.0061 125.929C81.3747 126.13 82.6592 126.528 83.6869 126.796C89.2522 128.246 90.5082 128.554 92.6418 128.986C93.9916 129.26 95.0215 129.573 95.1652 129.676C95.4681 129.906 95.864 129.899 96.0552 129.662C96.0454 129.693 96.1316 129.738 96.2382 129.874C96.4306 130.119 96.6012 130.238 96.7616 130.237L96.8819 130.236L97.0031 130.117L97.0398 130.069C97.6815 130.002 100.857 130.669 101.468 131.08C101.897 131.369 102.191 131.415 102.341 131.217L102.373 131.175C102.578 131.148 103.273 131.231 104.786 131.718C105.094 131.817 105.299 131.901 105.436 131.966C105.382 131.954 105.324 131.936 105.26 131.91C104.924 131.77 104.46 131.7 104.257 131.965C104.264 131.953 104.21 131.953 104.155 131.91C103.901 131.716 103.031 131.607 102.51 131.58C101.87 131.548 101.014 131.403 100.645 131.266C100.239 131.114 98.6626 130.749 97.1315 130.451C95.713 130.176 94.7437 129.9 94.5103 129.784C94.4711 129.697 94.4003 129.633 94.3081 129.609C94.2194 129.586 94.0423 129.583 93.8567 129.824C93.855 129.815 93.8226 129.79 93.7863 129.733C93.6502 129.516 93.4698 129.389 93.2919 129.38C93.1635 129.374 93.044 129.43 92.9651 129.534C92.9668 129.522 92.8879 129.516 92.8098 129.457C92.5069 129.226 91.3465 129.03 90.7739 128.959C87.8447 128.592 80.4909 126.982 80.0136 126.663C79.7909 126.494 79.5836 126.555 79.4854 126.683L79.4239 126.763L79.4188 126.978C79.4993 127.57 83.6318 130.182 83.6719 130.208C84.8237 130.93 86.0314 131.507 86.8219 131.716C87.9034 132 97.9432 133.895 99.9215 134.19C100.997 134.35 103.369 134.883 105.208 135.38C109.138 136.441 115.875 137.732 116.72 137.486C116.766 137.472 116.799 137.467 116.824 137.466C116.933 137.566 117.27 137.676 118.549 137.79C122.756 138.166 127.694 138.753 129.334 139.073C131.304 139.455 131.487 139.216 131.548 139.138ZM73.0417 69.1799C73.0643 69.3246 73.1919 69.4769 73.4205 69.6339C73.5425 69.7184 73.8672 69.9416 74.0515 69.701C74.1791 69.5334 74.0584 69.3375 74.0196 69.2723C73.8707 69.0261 73.5935 68.7956 73.3093 68.8348L73.2086 68.8485L73.0968 68.9525L73.0337 69.0362L73.0417 69.1799ZM208.255 192.072C208.262 192.062 208.267 192.052 208.274 192.043C208.268 192.056 208.263 192.069 208.258 192.081L208.255 192.072ZM172.007 220.894C171.977 220.803 171.925 220.721 171.86 220.649C171.945 220.703 172.034 220.753 172.121 220.796L172.007 220.894ZM135.671 167.956C135.611 167.909 135.36 167.724 134.942 167.385C134.994 167.418 135.042 167.447 135.081 167.47C135.634 167.793 135.672 167.954 135.671 167.956ZM138.812 110.355C138.79 110.215 138.775 110.073 138.769 109.94C138.786 110.09 138.8 110.229 138.812 110.355ZM138.657 109.015C138.619 108.961 138.572 108.931 138.519 108.912L138.492 108.902C138.487 108.846 138.483 108.773 138.485 108.681C138.488 108.524 138.518 108.376 138.557 108.262C138.594 108.53 138.627 108.78 138.657 109.015Z" fill="#BE9B84" fill-opacity="0.1"/>
</g>
<defs>
<clipPath id="clip0_25_1108">
<rect width="211" height="235" fill="white"/>
</clipPath>
</defs>
</svg>
