<svg width="26" height="15" viewBox="0 0 26 15" fill="none" xmlns="http://www.w3.org/2000/svg">
<path d="M1 6.36396C0.447715 6.36396 0 6.81168 0 7.36396C0 7.91625 0.447715 8.36396 1 8.36396V7.36396V6.36396ZM25.7071 8.07107C26.0976 7.68054 26.0976 7.04738 25.7071 6.65685L19.3431 0.292892C18.9526 -0.0976318 18.3195 -0.0976318 17.9289 0.292892C17.5384 0.683417 17.5384 1.31658 17.9289 1.70711L23.5858 7.36396L17.9289 13.0208C17.5384 13.4113 17.5384 14.0445 17.9289 14.435C18.3195 14.8256 18.9526 14.8256 19.3431 14.435L25.7071 8.07107ZM1 7.36396V8.36396H25V7.36396V6.36396H1V7.36396Z" fill="#967B6A"/>
</svg>
