<svg width="25" height="25" viewBox="0 0 25 25" fill="none" xmlns="http://www.w3.org/2000/svg">
<path d="M12.1139 5.51698L12.5586 4.74978C12.8322 4.27089 13.443 4.10963 13.9219 4.38328C14.4008 4.65693 14.5621 5.26776 14.2884 5.74665L10.0127 13.1499H13.1059C14.1076 13.1499 14.6696 14.3275 14.2347 15.1436H5.17003C4.61784 15.1436 4.17316 14.6989 4.17316 14.1467C4.17316 13.5945 4.61784 13.1499 5.17003 13.1499H7.71106L10.9655 7.51071L9.94913 5.74665C9.67548 5.26776 9.83673 4.66182 10.3156 4.38328C10.7945 4.10963 11.4004 4.27089 11.679 4.74978L12.1139 5.51698ZM8.26813 16.1698L7.31036 17.8312C7.03671 18.3101 6.42588 18.4714 5.947 18.1977C5.46811 17.9241 5.30685 17.3132 5.5805 16.8344L6.29395 15.6029C7.09535 15.3537 7.75015 15.5443 8.26813 16.1698ZM16.5216 13.1547H19.1164C19.6686 13.1547 20.1133 13.5994 20.1133 14.1516C20.1133 14.7038 19.6686 15.1485 19.1164 15.1485H17.6748L18.6473 16.8344C18.9209 17.3132 18.7597 17.9192 18.2808 18.1977C17.8019 18.4714 17.196 18.3101 16.9174 17.8312C15.2804 14.9921 14.049 12.8664 13.2329 11.4493C12.3973 10.0078 12.9935 8.56133 13.5848 8.07267C14.2396 9.19659 15.2169 10.8922 16.5216 13.1547ZM12.1188 0C5.42413 0 0 5.42413 0 12.1188C0 18.8134 5.42413 24.2376 12.1188 24.2376C18.8134 24.2376 24.2376 18.8134 24.2376 12.1188C24.2376 5.42413 18.8134 0 12.1188 0ZM22.6738 12.1188C22.6738 17.9192 17.9778 22.6738 12.1188 22.6738C6.31838 22.6738 1.56371 17.9778 1.56371 12.1188C1.56371 6.31838 6.25974 1.56371 12.1188 1.56371C17.9192 1.56371 22.6738 6.25974 22.6738 12.1188Z" fill="white"/>
</svg>
