<svg width="19" height="19" viewBox="0 0 19 19" fill="none" xmlns="http://www.w3.org/2000/svg">
<path d="M0.292893 17.2636C-0.0976311 17.6541 -0.0976311 18.2873 0.292893 18.6778C0.683418 19.0683 1.31658 19.0683 1.70711 18.6778L1 17.9707L0.292893 17.2636ZM18.9706 1.00014C18.9706 0.447856 18.5228 0.000140406 17.9706 0.000140153L8.97056 0.000140954C8.41828 0.000140617 7.97056 0.447856 7.97056 1.00014C7.97056 1.55243 8.41828 2.00014 8.97056 2.00014L16.9706 2.00014L16.9706 10.0001C16.9706 10.5524 17.4183 11.0001 17.9706 11.0001C18.5228 11.0001 18.9706 10.5524 18.9706 10.0001L18.9706 1.00014ZM1 17.9707L1.70711 18.6778L18.6777 1.70725L17.9706 1.00014L17.2635 0.293034L0.292893 17.2636L1 17.9707Z" fill="#967B6A"/>
</svg>
