<svg width="13" height="13" viewBox="0 0 13 13" fill="none" xmlns="http://www.w3.org/2000/svg">
<path d="M11.2613 8.51355L9.49603 8.31201C9.28846 8.28763 9.07807 8.31061 8.88066 8.37922C8.68325 8.44783 8.50396 8.56029 8.35626 8.70815L7.07749 9.98692C5.1047 8.98332 3.50114 7.37976 2.49754 5.40697L3.78326 4.12125C4.08211 3.82241 4.22805 3.40542 4.1794 2.98148L3.97786 1.23012C3.9386 0.891033 3.77594 0.578244 3.52088 0.351381C3.26582 0.124517 2.9362 -0.000556036 2.59484 1.85836e-06H1.39252C0.607189 1.85836e-06 -0.0460958 0.653286 0.00255301 1.43862C0.370894 7.37378 5.11763 12.1136 11.0458 12.4819C11.8312 12.5306 12.4845 11.8773 12.4845 11.0919V9.88962C12.4914 9.18769 11.9632 8.59695 11.2613 8.51355Z" fill="white"/>
</svg>
