<svg width="26" height="26" viewBox="0 0 26 26" fill="none" xmlns="http://www.w3.org/2000/svg">
<path d="M2.3457 2.90674V22.1111C2.34583 22.1528 2.35826 22.1935 2.38143 22.2281C2.40459 22.2627 2.43747 22.2897 2.47593 22.3058C2.51439 22.3218 2.55673 22.3261 2.59763 22.3181C2.63853 22.3102 2.67618 22.2904 2.70585 22.2611L12.7053 12.5094L2.70585 2.75672C2.67618 2.72747 2.63853 2.70762 2.59763 2.69968C2.55673 2.69174 2.51439 2.69605 2.47593 2.71207C2.43747 2.72809 2.40459 2.75511 2.38143 2.78974C2.35826 2.82437 2.34583 2.86507 2.3457 2.90674Z" fill="white"/>
<path d="M16.8973 8.5026L4.35923 1.5949L4.35141 1.5905C4.13542 1.47322 3.93018 1.76544 4.10708 1.93549L13.9355 11.3334L16.8973 8.5026Z" fill="white"/>
<path d="M4.10765 23.0835C3.92978 23.2535 4.13501 23.5457 4.35198 23.4285L4.3598 23.4241L16.8969 16.5164L13.9351 13.6846L4.10765 23.0835Z" fill="white"/>
<path d="M21.9584 11.2881L18.4571 9.35986L15.165 12.5098L18.4571 15.6582L21.9584 13.7314C22.9108 13.2051 22.9108 11.8144 21.9584 11.2881Z" fill="white"/>
</svg>
